<svg xmlns="http://www.w3.org/2000/svg" viewBox="0 0 284.63 125.18"><defs><style>.cls-1{fill:#181818;}</style></defs><title>Asset 2</title><g id="Layer_2" data-name="Layer 2"><g id="Layer_1-2" data-name="Layer 1"><path class="cls-1" d="M29,100.63c0,.18-.2.27-.6.27H27.36a2.19,2.19,0,0,0-1.3.26,3.51,3.51,0,0,0-.7,1.39q-.14.39-.84,2.18l-3.2,8.05q-3,7.56-5.16,9.71a9.56,9.56,0,0,1-7,2.67A7.7,7.7,0,0,1,4.65,124,3.6,3.6,0,0,1,3,120.91a19.19,19.19,0,0,1,1.72-6.3l4.42-10.92q.24-.63.7-1.66a.89.89,0,0,0,.14-.42c0-.4-.29-.63-.88-.7H8q-.35,0-.35-.18c0-.18.19-.27.56-.27H16c.26,0,.39.07.39.21s-.06.26-.17.28-.55,0-1.3.07a2.43,2.43,0,0,0-1.12.18,1.67,1.67,0,0,0-.53.67q-.31.88-.87,2.25L8.07,115a20.31,20.31,0,0,0-1.75,6.43,2.78,2.78,0,0,0,.95,2.18,3.5,3.5,0,0,0,2.42.84,7.83,7.83,0,0,0,6.73-3.52,42.65,42.65,0,0,0,4-8.33l3.09-7.95a17.23,17.23,0,0,0,1-3q0-.74-1.3-.74h-.84c-.21,0-.32-.07-.32-.21s.19-.24.56-.24h6C28.89,100.45,29,100.51,29,100.63Z"/><path class="cls-1" d="M39.05,112.3a8.87,8.87,0,0,1-.91,2.93l-2.84,6.46a4.94,4.94,0,0,0-.49,1.52q0,.74.82.74,1,0,2.93-1.62a.61.61,0,0,1,.29-.11c.14,0,.21.06.21.18q0,.42-1.17,1.23a5.93,5.93,0,0,1-3.41,1.09,3.17,3.17,0,0,1-1.81-.48A1.42,1.42,0,0,1,32,123a6.49,6.49,0,0,1,.67-2.12l2.81-6.32a9.88,9.88,0,0,0,1-3.11,1.07,1.07,0,0,0-1.23-1.2q-1.62,0-3.79,2.32a17,17,0,0,0-3,4.92l-2.88,6.67q-.18.53-.46.53H22.69q-.24,0-.24-.18a.42.42,0,0,1,.1-.21l.25-.52,5.37-12.86.18-.31c0-.16-.32-.26-.88-.28s-1.05-.15-1.05-.39.13-.24.39-.24a6.55,6.55,0,0,1,.77.07,6.56,6.56,0,0,0,.81.07,7,7,0,0,0,2.49-.28,1.15,1.15,0,0,1,.32-.11.19.19,0,0,1,.21.21.4.4,0,0,1,0,.18l-1.3,3.3.81-.89q2.6-2.79,5-2.79a3.28,3.28,0,0,1,2.28.79A2.62,2.62,0,0,1,39.05,112.3Z"/><path class="cls-1" d="M54.22,111.2a1.75,1.75,0,0,1-.46,1.21,1.38,1.38,0,0,1-1.05.51c-.38,0-.56-.13-.56-.39l.07-.35a1.21,1.21,0,0,0,.07-.39.74.74,0,0,0-.84-.84q-1,0-2.84,2a20.76,20.76,0,0,0-3.44,5.51L42.63,124c-.23.54-.43.81-.6.81a7.9,7.9,0,0,0-1.09-.11,3.42,3.42,0,0,0-.95.11h-.21c-.21,0-.32,0-.32-.14s0-.07.1-.14l.18-.35,5.94-13.52c0-.19-.15-.28-.46-.28h-.14a2.12,2.12,0,0,1-.46,0h-.35q-.53,0-.53-.25t1.83-.28a8.94,8.94,0,0,0,2.46-.32l.32-.07a.19.19,0,0,1,.21.21,7,7,0,0,1-.46,1.3l-1.3,3.16q3.23-4.5,5.69-4.5Q54.22,109.65,54.22,111.2Z"/><path class="cls-1" d="M60.82,109.79a1.19,1.19,0,0,1-.18.42q-.25.42-.81,1.72l-4,9.21a9,9,0,0,0-.81,2.31q0,.95,1,.95a3.3,3.3,0,0,0,1.53-.47,3.73,3.73,0,0,0,1.32-1.12c.21-.28.37-.41.49-.41a.19.19,0,0,1,.21.21q0,.42-1,1.25a5,5,0,0,1-3.34,1.25,3.14,3.14,0,0,1-2-.63,2,2,0,0,1-.79-1.61,8.19,8.19,0,0,1,.88-2.84l3.65-8.13a2.79,2.79,0,0,1,.42-.91.43.43,0,0,0,.11-.24q0-.31-1.55-.42c-.19,0-.28-.13-.28-.25s.09-.32.28-.32l.53.07a12.33,12.33,0,0,0,1.58.07,6.05,6.05,0,0,0,2.07-.25,1.62,1.62,0,0,1,.49-.14C60.74,109.51,60.82,109.61,60.82,109.79Zm2.42-6.57q0,1.47-1.37,1.47a1.6,1.6,0,0,1-1.16-.44,1.47,1.47,0,0,1-.46-1.11q0-1.44,1.62-1.44Q63.25,101.72,63.25,103.23Z"/><path class="cls-1" d="M75.43,111.55a15.81,15.81,0,0,1-1,5.37,17,17,0,0,1-2.72,4.92q-2.63,3.27-5.41,3.27a3.75,3.75,0,0,1-2.49-.83,2.65,2.65,0,0,1-1-2.12,14,14,0,0,1,1.37-4.85l2-4.81a4.47,4.47,0,0,0,.42-1.3q0-.74-.84-.74a3.33,3.33,0,0,0-1.88,1,7.18,7.18,0,0,0-1.7,2.11q-.24.53-.53.53c-.21,0-.32-.08-.32-.25q0-.77,1.93-2.6a5.33,5.33,0,0,1,3.58-1.72,2.64,2.64,0,0,1,1.76.56,1.83,1.83,0,0,1,.67,1.47,6.72,6.72,0,0,1-.67,2.52l-2,4.56a10.1,10.1,0,0,0-1,3.85q0,1.82,1.51,1.82,2.21,0,4.83-4a14,14,0,0,0,2.62-7.52q0-1.16-.49-1.16l-.33.09a1.85,1.85,0,0,1-.51.09q-.95,0-.95-.88a1.26,1.26,0,0,1,.44-1,1.48,1.48,0,0,1,1-.4Q75.44,109.58,75.43,111.55Z"/><path class="cls-1" d="M93.2,109.79a3.54,3.54,0,0,1-.28.73L88.29,121a6.31,6.31,0,0,0-.67,2.31.8.8,0,0,0,.91.91q1.37,0,2.74-1.86c.19-.26.33-.39.42-.39a.12.12,0,0,1,.14.14q0,.39-.77,1.23A4.88,4.88,0,0,1,87.37,125a2.83,2.83,0,0,1-1.77-.53,1.65,1.65,0,0,1-.68-1.37,3.78,3.78,0,0,1,.25-1.23q-2.21,3.23-5.13,3.23a4,4,0,0,1-3-1.17,4.08,4.08,0,0,1-1.16-3,9.09,9.09,0,0,1,1.33-4.38,16.75,16.75,0,0,1,3.55-4.35q3-2.66,5.55-2.66a2.63,2.63,0,0,1,2.95,2.53l.88-1.86q.28-.56.49-.56l.42.07a2.89,2.89,0,0,0,.49.07,3.39,3.39,0,0,0,1.19-.16.51.51,0,0,1,.25-.08C93.13,109.55,93.2,109.63,93.2,109.79Zm-4.43,2.9a2.39,2.39,0,0,0-.65-1.75,2.24,2.24,0,0,0-1.67-.66,4.43,4.43,0,0,0-3.37,2.06,21.84,21.84,0,0,0-3,4.94A11.78,11.78,0,0,0,79,121.85q0,2.38,2,2.38A3.76,3.76,0,0,0,83.39,123a10,10,0,0,0,2.2-3.07l2.74-5.87A4,4,0,0,0,88.78,112.7Z"/><path class="cls-1" d="M105.39,100.1a2.49,2.49,0,0,1-.18.49q-.11.28-.35.84L97,120.64a10.21,10.21,0,0,0-.88,2.77q0,.95,1.26.95a3.47,3.47,0,0,0,2.53-1.47c.35-.42.57-.63.67-.63a.22.22,0,0,1,.25.25q0,.46-1.16,1.48a5,5,0,0,1-3.44,1.19q-2.88,0-2.88-2.15a10,10,0,0,1,.88-2.85l7.87-19.23a1.15,1.15,0,0,0,.1-.25c0-.21-.22-.32-.67-.32q-1.55,0-1.55-.24c0-.12.1-.18.32-.18h1.93a19.5,19.5,0,0,0,2.25-.09l.53,0C105.26,99.82,105.39,99.91,105.39,100.1Z"/><path class="cls-1" d="M113.92,100.1a2.49,2.49,0,0,1-.18.49q-.11.28-.35.84l-7.87,19.21a10.21,10.21,0,0,0-.88,2.77q0,.95,1.26.95a3.47,3.47,0,0,0,2.53-1.47c.35-.42.57-.63.67-.63a.22.22,0,0,1,.25.25q0,.46-1.16,1.48a5,5,0,0,1-3.44,1.19q-2.88,0-2.88-2.15a10,10,0,0,1,.88-2.85l7.87-19.23a1.15,1.15,0,0,0,.1-.25c0-.21-.22-.32-.67-.32q-1.55,0-1.55-.24c0-.12.1-.18.32-.18h1.93a19.5,19.5,0,0,0,2.25-.09l.53,0C113.8,99.82,113.92,99.91,113.92,100.1Z"/><path class="cls-1" d="M124.35,112a3.62,3.62,0,0,1-2,3.13,9.79,9.79,0,0,1-5.16,1.24,24.56,24.56,0,0,1-2.49-.14,11.59,11.59,0,0,0-1.3,5q0,3.11,2.77,3.11a5.77,5.77,0,0,0,4.18-2.22q.46-.49.6-.49a.15.15,0,0,1,.18.17q0,.8-1.65,2a6.67,6.67,0,0,1-3.93,1.36,5.4,5.4,0,0,1-3.76-1.33,4.34,4.34,0,0,1-1.47-3.36q0-3.92,4.28-7.6,3.76-3.22,6.71-3.22T124.35,112Zm-2.49-.58a1,1,0,0,0-1.09-1.09,3.59,3.59,0,0,0-2.21.84,14.54,14.54,0,0,0-3.62,4.6q.42,0,.95,0a7,7,0,0,0,3.83-1.19A3.8,3.8,0,0,0,121.86,111.37Z"/><path class="cls-1" d="M145.28,99.92a1.94,1.94,0,0,1-.1.25q-.14.28-.39.81l-8,19.39a11.16,11.16,0,0,0-.91,2.74q0,1,1.12,1a3.42,3.42,0,0,0,2.88-1.83q.39-.59.53-.59c.16,0,.25.09.25.28q0,.6-1.19,1.69a5.1,5.1,0,0,1-3.55,1.33q-2.63,0-2.63-2.25v-1a10,10,0,0,1-2.48,2.62,5,5,0,0,1-2.79.78,4.31,4.31,0,0,1-3.19-1.24,4.39,4.39,0,0,1-1.24-3.24q0-4.13,3.93-7.81,3.55-3.33,6.78-3.33a2.9,2.9,0,0,1,3,2.14l.21-.42.25-.53,4-9.68a.53.53,0,0,0,.14-.32.27.27,0,0,0-.19-.3,11.2,11.2,0,0,0-1.32-.12c-.45,0-.67-.09-.67-.21s.13-.18.39-.18h3a9.48,9.48,0,0,0,1.72-.09l.28,0A.19.19,0,0,1,145.28,99.92Zm-8.46,12.39a1.86,1.86,0,0,0-.74-1.44,2.48,2.48,0,0,0-1.65-.63q-2.6,0-5.3,4.34-2.56,4.1-2.56,6.94,0,2.56,2.32,2.56,2,0,4-2.84a21.33,21.33,0,0,0,2.42-4.66l.81-2.07A9.46,9.46,0,0,0,136.82,112.32Z"/><path class="cls-1" d="M171.17,100.63a.61.61,0,0,1-.07.18,4.59,4.59,0,0,0-.39,1q-.6,2.09-1,3.57t-.65,1.47c-.14,0-.21-.09-.21-.28l0-.25a7.2,7.2,0,0,0,.46-2.7q0-1.72-1.11-2.16a11.63,11.63,0,0,0-3.74-.47h-2.35a.93.93,0,0,0-.88.7l-1.19,3.14-2.63,6.7q1.27.14,1.65.14a5.39,5.39,0,0,0,3.13-.91,4.75,4.75,0,0,0,1.86-2.49q.18-.53.42-.53c.21,0,.32.09.32.28a1.61,1.61,0,0,1-.14.39,80,80,0,0,0-3.48,8.74c-.07.33-.19.49-.35.49a.22.22,0,0,1-.25-.25,1.5,1.5,0,0,1,.07-.39,11.49,11.49,0,0,0,.53-2.72,1.7,1.7,0,0,0-.77-1.59,5.78,5.78,0,0,0-2.74-.46c-.37,0-.66.23-.84.7l-3.79,9.37a6.4,6.4,0,0,0-.42,1.23q0,.32.63.35l1.83.07q.91,0,1.9,0,5.09,0,7-2.21a10.91,10.91,0,0,0,1.83-3.69q.24-.7.6-.7a.22.22,0,0,1,.25.25,6,6,0,0,1-.35,1.06q-1.33,3.5-2,5.47a.88.88,0,0,1-.32.46,2,2,0,0,1-.81.1H151.32q-4.36,0-5.07,0c-.48,0-.72-.12-.72-.28s.11-.22.32-.25.89,0,2,0a1.3,1.3,0,0,0,.91-.25,5.63,5.63,0,0,0,.74-1.44l7.09-17.11q.32-.67.93-2.17a7.81,7.81,0,0,0,.61-1.86c0-.19-.11-.3-.33-.33s-1-.06-2.3-.09c-.28,0-.42-.07-.42-.22s.22-.37.67-.37h1c.63,0,1.4,0,2.32,0l10.46.07a1.64,1.64,0,0,0,.77-.11h.21Q171.17,100.28,171.17,100.63Z"/><path class="cls-1" d="M185.71,111.44q0,1.23-1.16,1.23t-1-.84q0-.28.49-.67a.46.46,0,0,0,.14-.39q0-.7-.88-.7-1.23,0-2.88,2a13.69,13.69,0,0,0-1.47,2.07,21.83,21.83,0,0,0-1.12,3l-.28.91a16.06,16.06,0,0,0-.84,4.55q0,2,1.47,2a3.43,3.43,0,0,0,2.13-.9,7,7,0,0,0,1.81-2.23q.42-.81.63-.81c.12,0,.18.07.18.21a3.91,3.91,0,0,1-1.05,2,5.48,5.48,0,0,1-4.39,2.26q-3.41,0-3.41-3a10.25,10.25,0,0,1,.11-1.39,11.5,11.5,0,0,1-2.48,3.41,4.17,4.17,0,0,1-2.76,1q-2.46,0-2.46-2.14a1.77,1.77,0,0,1,.42-1.19,1.33,1.33,0,0,1,1.05-.49q1.12,0,1.12,1,0,.46-.88,1.14c-.09,0-.14.14-.14.36q0,.78,1.16.78,1.58,0,3.21-2.14a15,15,0,0,0,2.48-5.27l.42-1.54a13.71,13.71,0,0,0,.6-3.09q0-2-1.47-2-2.14,0-3.9,2.71c-.28.42-.52.63-.7.63s-.21-.08-.21-.25q0-.53,1.26-1.83a6,6,0,0,1,4.25-2.14,3.58,3.58,0,0,1,2.65.84,4.46,4.46,0,0,1,1,2.84q2.32-3.69,4.81-3.69a2.25,2.25,0,0,1,1.55.53A1.71,1.71,0,0,1,185.71,111.44Z"/><path class="cls-1" d="M198.1,112.18q0,1.72-1.44,1.72a1.24,1.24,0,0,1-.88-.37,1.12,1.12,0,0,1-.39-.83q0-.84.95-.84l.28,0a2.22,2.22,0,0,0,.42.14q.28,0,.28-.39a1.23,1.23,0,0,0-.69-1,2.77,2.77,0,0,0-1.53-.44q-2.6,0-5,3.85a14,14,0,0,0-2.49,7.39q0,2.94,2.67,2.94,2,0,4-2.39.35-.42.56-.42c.12,0,.18.07.18.21s-.3.72-.91,1.32a6.24,6.24,0,0,1-4.5,2,5.11,5.11,0,0,1-3.67-1.31,4.58,4.58,0,0,1-1.39-3.49q0-3.68,3.93-7.53,3.23-3.19,6.67-3.19a3.05,3.05,0,0,1,2.11.72A2.4,2.4,0,0,1,198.1,112.18Z"/><path class="cls-1" d="M211.1,112a3.62,3.62,0,0,1-2,3.13,9.79,9.79,0,0,1-5.16,1.24,24.56,24.56,0,0,1-2.49-.14,11.59,11.59,0,0,0-1.3,5q0,3.11,2.77,3.11a5.77,5.77,0,0,0,4.18-2.22q.46-.49.6-.49a.15.15,0,0,1,.18.17q0,.8-1.65,2a6.67,6.67,0,0,1-3.93,1.36,5.4,5.4,0,0,1-3.76-1.33,4.34,4.34,0,0,1-1.47-3.36q0-3.92,4.28-7.6,3.76-3.22,6.71-3.22T211.1,112Zm-2.49-.58a1,1,0,0,0-1.09-1.09,3.59,3.59,0,0,0-2.21.84,14.54,14.54,0,0,0-3.62,4.6q.42,0,.95,0a7,7,0,0,0,3.83-1.19A3.8,3.8,0,0,0,208.6,111.37Z"/><path class="cls-1" d="M222.55,100.1a2.49,2.49,0,0,1-.18.49q-.11.28-.35.84l-7.87,19.21a10.21,10.21,0,0,0-.88,2.77q0,.95,1.26.95a3.47,3.47,0,0,0,2.53-1.47c.35-.42.57-.63.67-.63a.22.22,0,0,1,.25.25q0,.46-1.16,1.48a5,5,0,0,1-3.44,1.19q-2.88,0-2.88-2.15a10,10,0,0,1,.88-2.85l7.87-19.23a1.15,1.15,0,0,0,.1-.25c0-.21-.22-.32-.67-.32q-1.55,0-1.55-.24c0-.12.1-.18.32-.18h1.93a19.5,19.5,0,0,0,2.25-.09l.53,0C222.42,99.82,222.55,99.91,222.55,100.1Z"/><path class="cls-1" d="M231.08,100.1a2.49,2.49,0,0,1-.18.49q-.11.28-.35.84l-7.87,19.21a10.21,10.21,0,0,0-.88,2.77q0,.95,1.26.95a3.47,3.47,0,0,0,2.53-1.47c.35-.42.57-.63.67-.63a.22.22,0,0,1,.25.25q0,.46-1.16,1.48a5,5,0,0,1-3.44,1.19q-2.88,0-2.88-2.15a10,10,0,0,1,.88-2.85l7.87-19.23a1.15,1.15,0,0,0,.1-.25c0-.21-.22-.32-.67-.32q-1.55,0-1.55-.24c0-.12.1-.18.32-.18h1.93a19.5,19.5,0,0,0,2.25-.09l.53,0C230.95,99.82,231.08,99.91,231.08,100.1Z"/><path class="cls-1" d="M241.51,112a3.62,3.62,0,0,1-2,3.13,9.79,9.79,0,0,1-5.16,1.24,24.56,24.56,0,0,1-2.49-.14,11.59,11.59,0,0,0-1.3,5q0,3.11,2.77,3.11a5.77,5.77,0,0,0,4.18-2.22q.46-.49.6-.49a.15.15,0,0,1,.18.17q0,.8-1.65,2a6.67,6.67,0,0,1-3.93,1.36,5.4,5.4,0,0,1-3.76-1.33,4.34,4.34,0,0,1-1.47-3.36q0-3.92,4.28-7.6,3.76-3.22,6.71-3.22T241.51,112Zm-2.49-.58a1,1,0,0,0-1.09-1.09,3.59,3.59,0,0,0-2.21.84,14.54,14.54,0,0,0-3.62,4.6q.42,0,.95,0a7,7,0,0,0,3.83-1.19A3.8,3.8,0,0,0,239,111.37Z"/><path class="cls-1" d="M256.61,112.3a8.87,8.87,0,0,1-.91,2.93l-2.84,6.46a4.94,4.94,0,0,0-.49,1.52q0,.74.82.74,1,0,2.93-1.62a.61.61,0,0,1,.29-.11c.14,0,.21.06.21.18q0,.42-1.17,1.23a5.93,5.93,0,0,1-3.41,1.09,3.17,3.17,0,0,1-1.81-.48,1.42,1.42,0,0,1-.71-1.22,6.49,6.49,0,0,1,.67-2.12l2.81-6.32a9.88,9.88,0,0,0,1-3.11,1.07,1.07,0,0,0-1.23-1.2q-1.62,0-3.79,2.32a17,17,0,0,0-3,4.92l-2.88,6.67q-.18.53-.46.53h-2.39q-.24,0-.24-.18a.42.42,0,0,1,.1-.21l.25-.52,5.37-12.86.18-.31c0-.16-.32-.26-.88-.28S244,110.2,244,110s.13-.24.39-.24a6.55,6.55,0,0,1,.77.07,6.56,6.56,0,0,0,.81.07,7,7,0,0,0,2.49-.28,1.15,1.15,0,0,1,.32-.11.19.19,0,0,1,.21.21.4.4,0,0,1,0,.18l-1.3,3.3.81-.89q2.6-2.79,5-2.79a3.28,3.28,0,0,1,2.28.79A2.62,2.62,0,0,1,256.61,112.3Z"/><path class="cls-1" d="M271.64,112.18q0,1.72-1.44,1.72a1.24,1.24,0,0,1-.88-.37,1.12,1.12,0,0,1-.39-.83q0-.84.95-.84l.28,0a2.22,2.22,0,0,0,.42.14q.28,0,.28-.39a1.23,1.23,0,0,0-.69-1,2.77,2.77,0,0,0-1.53-.44q-2.6,0-5,3.85a14,14,0,0,0-2.49,7.39q0,2.94,2.67,2.94,2,0,4-2.39.35-.42.56-.42c.12,0,.18.07.18.21s-.3.72-.91,1.32a6.24,6.24,0,0,1-4.5,2,5.11,5.11,0,0,1-3.67-1.31,4.58,4.58,0,0,1-1.39-3.49q0-3.68,3.93-7.53,3.23-3.19,6.67-3.19a3.05,3.05,0,0,1,2.11.72A2.4,2.4,0,0,1,271.64,112.18Z"/><path class="cls-1" d="M284.63,112a3.62,3.62,0,0,1-2,3.13,9.79,9.79,0,0,1-5.16,1.24,24.56,24.56,0,0,1-2.49-.14,11.59,11.59,0,0,0-1.3,5q0,3.11,2.77,3.11a5.77,5.77,0,0,0,4.18-2.22q.46-.49.6-.49a.15.15,0,0,1,.18.17q0,.8-1.65,2a6.67,6.67,0,0,1-3.93,1.36,5.4,5.4,0,0,1-3.76-1.33,4.34,4.34,0,0,1-1.47-3.36q0-3.92,4.28-7.6,3.76-3.22,6.71-3.22T284.63,112Zm-2.49-.58a1,1,0,0,0-1.09-1.09,3.59,3.59,0,0,0-2.21.84,14.54,14.54,0,0,0-3.62,4.6q.42,0,.95,0a7,7,0,0,0,3.83-1.19A3.8,3.8,0,0,0,282.14,111.37Z"/><path class="cls-1" d="M43.78,41.18a25.79,25.79,0,0,0-3.85-2,45.74,45.74,0,0,0-16.74-3.08L51.3,3.93V1.31H7.3V4.8h39L17.83,37.29l1.09,2.19h3.17c7.14,0,13.32,1.17,17.94,3.62a18.3,18.3,0,0,1,4.14,3,15.27,15.27,0,0,1,4.61,11.46v.22a16.89,16.89,0,0,1-.23,2.77,16.19,16.19,0,0,1-1.65,4.9c-3.34,6.35-10.75,10.38-19.12,10.38-10.61,0-19.14-5-24.93-12.69L0,65.5A34,34,0,0,0,27.67,79.18c9,0,17.19-4.05,21.54-10.6A19.65,19.65,0,0,0,52.5,57.63v-.22C52.5,50,49.26,44.68,43.78,41.18Z"/><path class="cls-1" d="M40,36h0Z"/><path class="cls-1" d="M71.42,0C53,0,41.51,16.25,40.08,35.44a25.79,25.79,0,0,1,3.71,1.93c.69-18.11,10.75-34,27.53-34,17.39,0,27.78,17.39,27.77,36.2v.22c0,18.81-10.18,36-27.56,36a23.82,23.82,0,0,1-17.31-7.35h0a19.73,19.73,0,0,1-1.83,3.48,27.71,27.71,0,0,0,19,7.27c19.69,0,31.5-18.59,31.5-39.48v-.22C102.92,18.38,91.22,0,71.42,0Z"/><path class="cls-1" d="M241.25,51.57l2.54-2.85A20.45,20.45,0,0,0,259.17,56c8.08,0,16.31-3.69,16.31-12.92,0-6.69-4.69-13-8.16-18.31s-5.77-8.77-5.77-12.62c0-5.23,2.69-9.39,8.23-9.39,9.15,0,10.15,10.23,9.69,17.16h1.38l3.77-17h-1.46l-1.92,2a22.64,22.64,0,0,0-12.15-3.77c-7.23,0-14.31,4.77-14.31,12.54,0,4.23,2.08,8.39,5.54,14.08,2.46,4.31,8.16,11.15,8.16,16.23,0,6-3.62,10.38-9.85,10.38-8,0-12.39-7.23-12.39-14.54a26,26,0,0,1,.39-4.92h-1.54l-5.46,16.62Zm.39-46.92c-2.92-2.54-6.92-3.46-10.77-3.46C213.25,1.18,196,24.41,196,41,196,50.64,202.25,56,211.63,56c6.23,0,11.31-2.54,15.69-6.85,0,.08.08.15.08.23l.85,5.08,1.08.23,6-18.92-1.39-.54c-3,7.69-10.85,19.15-20.08,19.15-7.31,0-10.46-5.54-10.46-12.38,0-9.92,4.69-19.77,11-27.31C218.4,10,224.71,2.8,231.56,2.8c8.38,0,7.77,9.85,7.15,15.77l1.23.23L244.33,3l-.92-.54ZM188.94,2.8c3.69,0,5.08.15,5.08.92a3.21,3.21,0,0,1-.23.69l-7.46,17.69a8.39,8.39,0,0,0-5.54-1.77c-11.16,0-26.23,18.85-26.23,29.46a5.79,5.79,0,0,0,5.85,6c7.39,0,11.62-6,15.85-11l.15.15c-.85,2.54-2.46,6.08-2.46,8.85,0,.92.54,2,1.46,2,4.69,0,11.31-8.08,13.08-10.39l-1-.77c-.85,1.15-6.31,7.38-7.54,7.38-.46,0-.62-.38-.54-1,.15-1.62,1.77-4.69,2.08-5.31L200.86,1.18H189.56Zm-7.85,19.46c2,0,3.46.69,3.46,2.92,0,5.92-13.85,28.46-20.46,28.46-2.39,0-3.54-1.15-3.54-3.54,0-6.54,13.39-27.85,20.54-27.85"/><path class="cls-1" d="M154.16,67.86h8.78v1.86h-6.7V72.8h5.94v1.86h-5.94v3.18H163v1.86h-8.87Z"/><path class="cls-1" d="M168.09,78l1.25-1.49A5.49,5.49,0,0,0,173.08,78c1.29,0,2.1-.61,2.1-1.49v0c0-.85-.47-1.3-2.67-1.81-2.52-.61-3.94-1.35-3.94-3.54v0c0-2,1.69-3.43,4-3.43a6.57,6.57,0,0,1,4.3,1.49l-1.12,1.57a5.38,5.38,0,0,0-3.22-1.22c-1.22,0-1.93.63-1.93,1.4v0c0,.91.54,1.32,2.83,1.86,2.5.61,3.79,1.51,3.79,3.47v0c0,2.22-1.74,3.54-4.23,3.54A7.3,7.3,0,0,1,168.09,78Z"/><path class="cls-1" d="M185.76,69.79H182V67.86h9.61v1.93h-3.76v9.92h-2.1Z"/><path class="cls-1" d="M195.13,77.37h2.25v2.34h-2.25Z"/><path class="cls-1" d="M213.39,69.89l-2.13.59-.44-1.69,3.2-1h1.44V79.71h-2.06Z"/><path class="cls-1" d="M228.44,74.28a3.46,3.46,0,0,1-2.79,1.27c-2.52,0-4.2-1.47-4.2-3.76v0a4.12,4.12,0,0,1,4.42-4.1,4.31,4.31,0,0,1,3.3,1.25c.86.88,1.42,2.18,1.42,4.52v0c0,3.81-1.88,6.45-5.08,6.45a5.62,5.62,0,0,1-3.79-1.42l1.13-1.59A4,4,0,0,0,225.57,78C227.67,78,228.43,75.85,228.44,74.28Zm-.08-2.61v0a2.24,2.24,0,0,0-2.47-2.18,2.17,2.17,0,0,0-2.35,2.2v0A2.16,2.16,0,0,0,226,73.8,2.19,2.19,0,0,0,228.36,71.67Z"/><path class="cls-1" d="M235.76,76.48v0a3,3,0,0,1,2.13-2.88,2.84,2.84,0,0,1-1.73-2.64v0c0-1.81,1.74-3.2,4.11-3.2s4.11,1.37,4.11,3.2v0a2.85,2.85,0,0,1-1.73,2.64,3,3,0,0,1,2.13,2.84v0c0,2.12-1.93,3.44-4.52,3.44S235.76,78.52,235.76,76.48Zm7-.12v0c0-1.08-1.08-1.79-2.49-1.79s-2.47.71-2.47,1.79v0c0,1,.91,1.78,2.47,1.78S242.76,77.34,242.76,76.36Zm-.37-5.23v0c0-.91-.84-1.66-2.11-1.66s-2.12.74-2.12,1.64v0a2.15,2.15,0,0,0,4.23,0Z"/><path class="cls-1" d="M255.93,69.69h-6V67.86h8.33v1.57L253,79.71h-2.35Z"/><polygon class="cls-1" points="116.65 79.17 150.47 1.31 146.63 1.31 112.81 79.17 116.65 79.17"/></g></g></svg>